<svg width="1280" height="504" viewBox="0 0 1280 504" fill="none" xmlns="http://www.w3.org/2000/svg">
<g clip-path="url(#clip0_8_930)">
<rect width="1280" height="504" rx="50" fill="url(#paint0_linear_8_930)"/>
<path d="M100.645 -9.69021L97.3874 9.67202L110.039 24.8369L90.5799 21.4629L75.4405 33.9651L78.698 14.6029L66.0465 -0.562052L85.5054 2.81198L100.645 -9.69021Z" fill="white" fill-opacity="0.06"/>
<path d="M19.9908 130.007L16.7333 149.369L29.3848 164.534L9.92583 161.16L-5.2136 173.662L-1.9561 154.3L-14.6076 139.135L4.85138 142.509L19.9908 130.007Z" fill="white" fill-opacity="0.06"/>
<path d="M241.421 71.5867L238.163 90.9489L250.815 106.114L231.356 102.74L216.216 115.242L219.474 95.8798L206.822 80.7149L226.281 84.0889L241.421 71.5867Z" fill="white" fill-opacity="0.06"/>
<path d="M160.766 211.284L157.509 230.646L170.16 245.811L150.701 242.437L135.562 254.939L138.82 235.577L126.168 220.412L145.627 223.786L160.766 211.284Z" fill="white" fill-opacity="0.06"/>
<path d="M80.1124 350.981L76.8549 370.343L89.5064 385.508L70.0474 382.134L54.908 394.636L58.1655 375.274L45.514 360.109L64.973 363.483L80.1124 350.981Z" fill="white" fill-opacity="0.06"/>
<path d="M-0.541663 490.678L-3.79916 510.04L8.85231 525.205L-10.6066 521.831L-25.7461 534.333L-22.4886 514.971L-35.14 499.806L-15.6811 503.18L-0.541663 490.678Z" fill="white" fill-opacity="0.06"/>
<path d="M462.85 13.1665L459.593 32.5288L472.244 47.6937L452.785 44.3197L437.646 56.8219L440.903 37.4596L428.252 22.2947L447.711 25.6687L462.85 13.1665Z" fill="white" fill-opacity="0.06"/>
<path d="M382.196 152.864L378.938 172.226L391.59 187.391L372.131 184.017L356.991 196.519L360.249 177.157L347.598 161.992L367.056 165.366L382.196 152.864Z" fill="white" fill-opacity="0.06"/>
<path d="M301.542 292.56L298.284 311.923L310.936 327.088L291.477 323.714L276.337 336.216L279.595 316.854L266.943 301.689L286.402 305.063L301.542 292.56Z" fill="white" fill-opacity="0.06"/>
<path d="M220.888 432.257L217.63 451.62L230.282 466.785L210.823 463.411L195.683 475.913L198.941 456.551L186.289 441.386L205.748 444.76L220.888 432.257Z" fill="white" fill-opacity="0.06"/>
<path d="M684.28 -45.2537L681.022 -25.8915L693.674 -10.7266L674.215 -14.1006L659.075 -1.59843L662.333 -20.9607L649.681 -36.1256L669.14 -32.7516L684.28 -45.2537Z" fill="white" fill-opacity="0.06"/>
<path d="M603.626 94.4433L600.368 113.806L613.02 128.97L593.561 125.596L578.421 138.099L581.679 118.736L569.027 103.571L588.486 106.945L603.626 94.4433Z" fill="white" fill-opacity="0.06"/>
<path d="M522.972 234.14L519.714 253.503L532.365 268.668L512.907 265.294L497.767 277.796L501.025 258.434L488.373 243.269L507.832 246.643L522.972 234.14Z" fill="white" fill-opacity="0.06"/>
<path d="M442.317 373.837L439.06 393.199L451.711 408.364L432.252 404.99L417.113 417.493L420.371 398.13L407.719 382.965L427.178 386.339L442.317 373.837Z" fill="white" fill-opacity="0.06"/>
<path d="M361.663 513.534L358.406 532.896L371.057 548.061L351.598 544.687L336.459 557.19L339.717 537.827L327.065 522.662L346.524 526.036L361.663 513.534Z" fill="white" fill-opacity="0.06"/>
<path d="M825.056 36.0231L821.798 55.3853L834.449 70.5503L814.991 67.1762L799.851 79.6784L803.109 60.3162L790.457 45.1513L809.916 48.5253L825.056 36.0231Z" fill="white" fill-opacity="0.06"/>
<path d="M744.401 175.72L741.144 195.082L753.795 210.247L734.336 206.873L719.197 219.375L722.455 200.013L709.803 184.848L729.262 188.222L744.401 175.72Z" fill="white" fill-opacity="0.06"/>
<path d="M663.747 315.417L660.49 334.779L673.141 349.944L653.682 346.57L638.543 359.072L641.8 339.71L629.149 324.545L648.608 327.919L663.747 315.417Z" fill="white" fill-opacity="0.06"/>
<path d="M583.093 455.114L579.836 474.476L592.487 489.641L573.028 486.267L557.889 498.769L561.146 479.407L548.495 464.242L567.954 467.616L583.093 455.114Z" fill="white" fill-opacity="0.06"/>
<path d="M1046.48 -22.3971L1043.23 -3.03489L1055.88 12.13L1036.42 8.75601L1021.28 21.2582L1024.54 1.89597L1011.89 -13.269L1031.35 -9.89493L1046.48 -22.3971Z" fill="white" fill-opacity="0.06"/>
<path d="M965.831 117.3L962.573 136.662L975.225 151.827L955.766 148.453L940.626 160.955L943.884 141.593L931.233 126.428L950.691 129.802L965.831 117.3Z" fill="white" fill-opacity="0.06"/>
<path d="M885.177 256.997L881.919 276.359L894.571 291.524L875.112 288.15L859.972 300.652L863.23 281.29L850.578 266.125L870.037 269.499L885.177 256.997Z" fill="white" fill-opacity="0.06"/>
<path d="M804.523 396.694L801.265 416.056L813.917 431.221L794.458 427.847L779.318 440.349L782.576 420.987L769.924 405.822L789.383 409.196L804.523 396.694Z" fill="white" fill-opacity="0.06"/>
<path d="M1187.26 58.8797L1184 78.2419L1196.65 93.4068L1177.2 90.0328L1162.06 102.535L1165.31 83.1728L1152.66 68.0078L1172.12 71.3819L1187.26 58.8797Z" fill="white" fill-opacity="0.06"/>
<path d="M1106.61 198.577L1103.35 217.939L1116 233.104L1096.54 229.73L1081.4 242.232L1084.66 222.87L1072.01 207.705L1091.47 211.079L1106.61 198.577Z" fill="white" fill-opacity="0.06"/>
<path d="M1025.95 338.274L1022.69 357.636L1035.35 372.801L1015.89 369.427L1000.75 381.929L1004.01 362.567L991.354 347.402L1010.81 350.776L1025.95 338.274Z" fill="white" fill-opacity="0.06"/>
<path d="M945.298 477.971L942.041 497.333L954.692 512.498L935.233 509.124L920.094 521.626L923.351 502.264L910.7 487.099L930.159 490.473L945.298 477.971Z" fill="white" fill-opacity="0.06"/>
<path d="M1247.38 279.853L1244.12 299.216L1256.78 314.381L1237.32 311.007L1222.18 323.509L1225.44 304.147L1212.78 288.982L1232.24 292.356L1247.38 279.853Z" fill="white" fill-opacity="0.06"/>
<path d="M1166.73 419.551L1163.47 438.913L1176.12 454.078L1156.66 450.704L1141.52 463.206L1144.78 443.844L1132.13 428.679L1151.59 432.053L1166.73 419.551Z" fill="white" fill-opacity="0.06"/>
<path d="M1307.5 500.827L1304.25 520.19L1316.9 535.354L1297.44 531.98L1282.3 544.483L1285.56 525.12L1272.9 509.955L1292.36 513.329L1307.5 500.827Z" fill="white" fill-opacity="0.06"/>
<g filter="url(#filter0_d_8_930)">
<path d="M408.222 153.714H266.444C266.444 139.531 278.004 128 292.222 128H408.222C422.44 128 434 139.531 434 153.714V230.857C434 245.04 422.44 256.571 408.222 256.571H388.889V230.857H408.222V153.714ZM202 205.143C202 190.96 213.56 179.429 227.778 179.429H343.778C357.996 179.429 369.556 190.96 369.556 205.143V282.286C369.556 296.469 357.996 308 343.778 308H227.778C213.56 308 202 296.469 202 282.286V205.143ZM227.778 221.214C227.778 226.558 232.088 230.857 237.444 230.857H334.111C339.468 230.857 343.778 226.558 343.778 221.214C343.778 215.871 339.468 211.571 334.111 211.571H237.444C232.088 211.571 227.778 215.871 227.778 221.214Z" fill="#6570B5"/>
<path d="M408.222 153.714H266.444C266.444 139.531 278.004 128 292.222 128H408.222C422.44 128 434 139.531 434 153.714V230.857C434 245.04 422.44 256.571 408.222 256.571H388.889V230.857H408.222V153.714ZM202 205.143C202 190.96 213.56 179.429 227.778 179.429H343.778C357.996 179.429 369.556 190.96 369.556 205.143V282.286C369.556 296.469 357.996 308 343.778 308H227.778C213.56 308 202 296.469 202 282.286V205.143ZM227.778 221.214C227.778 226.558 232.088 230.857 237.444 230.857H334.111C339.468 230.857 343.778 226.558 343.778 221.214C343.778 215.871 339.468 211.571 334.111 211.571H237.444C232.088 211.571 227.778 215.871 227.778 221.214Z" fill="url(#paint1_linear_8_930)" fill-opacity="0.2"/>
</g>
<g filter="url(#filter1_d_8_930)">
<path d="M565.955 170.909V264H548.955L508.455 205.409H507.773V264H488.091V170.909H505.364L545.545 229.455H546.364V170.909H565.955ZM613.67 265.364C606.489 265.364 600.307 263.909 595.125 261C589.973 258.061 586.004 253.909 583.216 248.545C580.428 243.152 579.034 236.773 579.034 229.409C579.034 222.227 580.428 215.924 583.216 210.5C586.004 205.076 589.928 200.848 594.989 197.818C600.08 194.788 606.049 193.273 612.898 193.273C617.504 193.273 621.792 194.015 625.761 195.5C629.761 196.955 633.246 199.152 636.216 202.091C639.216 205.03 641.549 208.727 643.216 213.182C644.883 217.606 645.716 222.788 645.716 228.727V234.045H586.761V222.045H627.489C627.489 219.258 626.883 216.788 625.67 214.636C624.458 212.485 622.777 210.803 620.625 209.591C618.504 208.348 616.034 207.727 613.216 207.727C610.277 207.727 607.67 208.409 605.398 209.773C603.155 211.106 601.398 212.909 600.125 215.182C598.852 217.424 598.201 219.924 598.17 222.682V234.091C598.17 237.545 598.807 240.53 600.08 243.045C601.383 245.561 603.216 247.5 605.58 248.864C607.943 250.227 610.746 250.909 613.989 250.909C616.14 250.909 618.11 250.606 619.898 250C621.686 249.394 623.216 248.485 624.489 247.273C625.761 246.061 626.731 244.576 627.398 242.818L645.307 244C644.398 248.303 642.534 252.061 639.716 255.273C636.928 258.455 633.322 260.939 628.898 262.727C624.504 264.485 619.428 265.364 613.67 265.364ZM689.898 265.364C682.837 265.364 676.731 263.864 671.58 260.864C666.458 257.833 662.504 253.621 659.716 248.227C656.928 242.803 655.534 236.515 655.534 229.364C655.534 222.152 656.928 215.848 659.716 210.455C662.504 205.03 666.458 200.818 671.58 197.818C676.731 194.788 682.837 193.273 689.898 193.273C696.958 193.273 703.049 194.788 708.17 197.818C713.322 200.818 717.292 205.03 720.08 210.455C722.867 215.848 724.261 222.152 724.261 229.364C724.261 236.515 722.867 242.803 720.08 248.227C717.292 253.621 713.322 257.833 708.17 260.864C703.049 263.864 696.958 265.364 689.898 265.364ZM689.989 250.364C693.201 250.364 695.883 249.455 698.034 247.636C700.186 245.788 701.807 243.273 702.898 240.091C704.019 236.909 704.58 233.288 704.58 229.227C704.58 225.167 704.019 221.545 702.898 218.364C701.807 215.182 700.186 212.667 698.034 210.818C695.883 208.97 693.201 208.045 689.989 208.045C686.746 208.045 684.019 208.97 681.807 210.818C679.625 212.667 677.973 215.182 676.852 218.364C675.761 221.545 675.216 225.167 675.216 229.227C675.216 233.288 675.761 236.909 676.852 240.091C677.973 243.273 679.625 245.788 681.807 247.636C684.019 249.455 686.746 250.364 689.989 250.364ZM773.989 194.182V208.727H731.943V194.182H773.989ZM741.489 177.455H760.852V242.545C760.852 244.333 761.125 245.727 761.67 246.727C762.216 247.697 762.973 248.379 763.943 248.773C764.943 249.167 766.095 249.364 767.398 249.364C768.307 249.364 769.216 249.288 770.125 249.136C771.034 248.955 771.731 248.818 772.216 248.727L775.261 263.136C774.292 263.439 772.928 263.788 771.17 264.182C769.413 264.606 767.277 264.864 764.761 264.955C760.095 265.136 756.004 264.515 752.489 263.091C749.004 261.667 746.292 259.455 744.352 256.455C742.413 253.455 741.458 249.667 741.489 245.091V177.455ZM806.511 265.318C802.057 265.318 798.087 264.545 794.602 263C791.117 261.424 788.36 259.106 786.33 256.045C784.33 252.955 783.33 249.106 783.33 244.5C783.33 240.621 784.042 237.364 785.466 234.727C786.89 232.091 788.83 229.97 791.284 228.364C793.739 226.758 796.527 225.545 799.648 224.727C802.799 223.909 806.102 223.333 809.557 223C813.617 222.576 816.89 222.182 819.375 221.818C821.86 221.424 823.663 220.848 824.784 220.091C825.905 219.333 826.466 218.212 826.466 216.727V216.455C826.466 213.576 825.557 211.348 823.739 209.773C821.951 208.197 819.405 207.409 816.102 207.409C812.617 207.409 809.845 208.182 807.784 209.727C805.723 211.242 804.36 213.152 803.693 215.455L785.784 214C786.693 209.758 788.481 206.091 791.148 203C793.814 199.879 797.254 197.485 801.466 195.818C805.708 194.121 810.617 193.273 816.193 193.273C820.072 193.273 823.784 193.727 827.33 194.636C830.905 195.545 834.072 196.955 836.83 198.864C839.617 200.773 841.814 203.227 843.42 206.227C845.027 209.197 845.83 212.758 845.83 216.909V264H827.466V254.318H826.92C825.799 256.5 824.299 258.424 822.42 260.091C820.542 261.727 818.284 263.015 815.648 263.955C813.011 264.864 809.966 265.318 806.511 265.318ZM812.057 251.955C814.905 251.955 817.42 251.394 819.602 250.273C821.784 249.121 823.496 247.576 824.739 245.636C825.981 243.697 826.602 241.5 826.602 239.045V231.636C825.996 232.03 825.163 232.394 824.102 232.727C823.072 233.03 821.905 233.318 820.602 233.591C819.299 233.833 817.996 234.061 816.693 234.273C815.39 234.455 814.208 234.621 813.148 234.773C810.875 235.106 808.89 235.636 807.193 236.364C805.496 237.091 804.178 238.076 803.239 239.318C802.299 240.53 801.83 242.045 801.83 243.864C801.83 246.5 802.784 248.515 804.693 249.909C806.633 251.273 809.087 251.955 812.057 251.955ZM918.943 214.091L901.216 215.182C900.913 213.667 900.261 212.303 899.261 211.091C898.261 209.848 896.943 208.864 895.307 208.136C893.701 207.379 891.777 207 889.534 207C886.534 207 884.004 207.636 881.943 208.909C879.883 210.152 878.852 211.818 878.852 213.909C878.852 215.576 879.519 216.985 880.852 218.136C882.186 219.288 884.473 220.212 887.716 220.909L900.352 223.455C907.14 224.848 912.201 227.091 915.534 230.182C918.867 233.273 920.534 237.333 920.534 242.364C920.534 246.939 919.186 250.955 916.489 254.409C913.822 257.864 910.155 260.561 905.489 262.5C900.852 264.409 895.504 265.364 889.443 265.364C880.201 265.364 872.837 263.439 867.352 259.591C861.898 255.712 858.701 250.439 857.761 243.773L876.807 242.773C877.383 245.591 878.777 247.742 880.989 249.227C883.201 250.682 886.034 251.409 889.489 251.409C892.883 251.409 895.61 250.758 897.67 249.455C899.761 248.121 900.822 246.409 900.852 244.318C900.822 242.561 900.08 241.121 898.625 240C897.17 238.848 894.928 237.97 891.898 237.364L879.807 234.955C872.989 233.591 867.913 231.227 864.58 227.864C861.277 224.5 859.625 220.212 859.625 215C859.625 210.515 860.837 206.652 863.261 203.409C865.716 200.167 869.155 197.667 873.58 195.909C878.034 194.152 883.246 193.273 889.216 193.273C898.034 193.273 904.973 195.136 910.034 198.864C915.125 202.591 918.095 207.667 918.943 214.091ZM950.273 243.909L950.318 220.682H953.136L975.5 194.182H997.727L967.682 229.273H963.091L950.273 243.909ZM932.727 264V170.909H952.091V264H932.727ZM976.364 264L955.818 233.591L968.727 219.909L999.045 264H976.364ZM1065.32 214.091L1047.59 215.182C1047.29 213.667 1046.64 212.303 1045.64 211.091C1044.64 209.848 1043.32 208.864 1041.68 208.136C1040.08 207.379 1038.15 207 1035.91 207C1032.91 207 1030.38 207.636 1028.32 208.909C1026.26 210.152 1025.23 211.818 1025.23 213.909C1025.23 215.576 1025.89 216.985 1027.23 218.136C1028.56 219.288 1030.85 220.212 1034.09 220.909L1046.73 223.455C1053.52 224.848 1058.58 227.091 1061.91 230.182C1065.24 233.273 1066.91 237.333 1066.91 242.364C1066.91 246.939 1065.56 250.955 1062.86 254.409C1060.2 257.864 1056.53 260.561 1051.86 262.5C1047.23 264.409 1041.88 265.364 1035.82 265.364C1026.58 265.364 1019.21 263.439 1013.73 259.591C1008.27 255.712 1005.08 250.439 1004.14 243.773L1023.18 242.773C1023.76 245.591 1025.15 247.742 1027.36 249.227C1029.58 250.682 1032.41 251.409 1035.86 251.409C1039.26 251.409 1041.98 250.758 1044.05 249.455C1046.14 248.121 1047.2 246.409 1047.23 244.318C1047.2 242.561 1046.45 241.121 1045 240C1043.55 238.848 1041.3 237.97 1038.27 237.364L1026.18 234.955C1019.36 233.591 1014.29 231.227 1010.95 227.864C1007.65 224.5 1006 220.212 1006 215C1006 210.515 1007.21 206.652 1009.64 203.409C1012.09 200.167 1015.53 197.667 1019.95 195.909C1024.41 194.152 1029.62 193.273 1035.59 193.273C1044.41 193.273 1051.35 195.136 1056.41 198.864C1061.5 202.591 1064.47 207.667 1065.32 214.091Z" fill="white"/>
</g>
<path d="M216.526 380H212.571L218.597 362.545H223.352L229.369 380H225.415L221.043 366.534H220.906L216.526 380ZM216.278 373.139H225.619V376.02H216.278V373.139ZM252.425 368.656H248.692C248.624 368.173 248.485 367.744 248.275 367.369C248.065 366.989 247.795 366.665 247.465 366.398C247.136 366.131 246.755 365.926 246.323 365.784C245.897 365.642 245.434 365.571 244.934 365.571C244.031 365.571 243.244 365.795 242.573 366.244C241.903 366.687 241.383 367.335 241.013 368.188C240.644 369.034 240.46 370.062 240.46 371.273C240.46 372.517 240.644 373.562 241.013 374.409C241.388 375.256 241.911 375.895 242.582 376.327C243.252 376.759 244.028 376.974 244.908 376.974C245.403 376.974 245.86 376.909 246.281 376.778C246.707 376.648 247.085 376.457 247.414 376.207C247.744 375.952 248.016 375.642 248.232 375.278C248.454 374.915 248.607 374.5 248.692 374.034L252.425 374.051C252.329 374.852 252.087 375.625 251.701 376.369C251.32 377.108 250.806 377.77 250.158 378.355C249.516 378.935 248.749 379.395 247.857 379.736C246.971 380.071 245.968 380.239 244.849 380.239C243.292 380.239 241.9 379.886 240.673 379.182C239.451 378.477 238.485 377.457 237.775 376.122C237.07 374.787 236.718 373.17 236.718 371.273C236.718 369.369 237.076 367.75 237.792 366.415C238.508 365.08 239.479 364.062 240.707 363.364C241.934 362.659 243.315 362.307 244.849 362.307C245.86 362.307 246.798 362.449 247.661 362.733C248.531 363.017 249.3 363.432 249.971 363.977C250.641 364.517 251.187 365.179 251.607 365.963C252.033 366.747 252.306 367.645 252.425 368.656ZM263.398 374.426V366.909H267.029V380H263.543V377.622H263.407C263.112 378.389 262.62 379.006 261.933 379.472C261.251 379.937 260.418 380.17 259.435 380.17C258.56 380.17 257.79 379.972 257.126 379.574C256.461 379.176 255.941 378.611 255.566 377.878C255.197 377.145 255.009 376.267 255.004 375.244V366.909H258.634V374.597C258.64 375.369 258.847 375.98 259.256 376.429C259.665 376.878 260.214 377.102 260.901 377.102C261.339 377.102 261.748 377.003 262.129 376.804C262.509 376.599 262.816 376.298 263.049 375.901C263.288 375.503 263.404 375.011 263.398 374.426ZM280.825 370.642L277.501 370.847C277.445 370.562 277.322 370.307 277.135 370.08C276.947 369.847 276.7 369.662 276.393 369.526C276.092 369.384 275.732 369.312 275.311 369.312C274.749 369.312 274.274 369.432 273.888 369.67C273.501 369.903 273.308 370.216 273.308 370.608C273.308 370.92 273.433 371.185 273.683 371.401C273.933 371.616 274.362 371.79 274.97 371.92L277.339 372.398C278.612 372.659 279.561 373.08 280.186 373.659C280.811 374.239 281.124 375 281.124 375.943C281.124 376.801 280.871 377.554 280.365 378.202C279.865 378.849 279.178 379.355 278.303 379.719C277.433 380.077 276.43 380.256 275.294 380.256C273.561 380.256 272.18 379.895 271.152 379.173C270.129 378.446 269.53 377.457 269.354 376.207L272.925 376.02C273.033 376.548 273.294 376.952 273.709 377.23C274.124 377.503 274.655 377.639 275.303 377.639C275.939 377.639 276.45 377.517 276.837 377.273C277.229 377.023 277.428 376.702 277.433 376.31C277.428 375.98 277.288 375.71 277.016 375.5C276.743 375.284 276.322 375.119 275.754 375.006L273.487 374.554C272.209 374.298 271.257 373.855 270.632 373.224C270.013 372.594 269.703 371.79 269.703 370.812C269.703 369.972 269.93 369.247 270.385 368.639C270.845 368.031 271.49 367.562 272.32 367.233C273.155 366.903 274.132 366.739 275.251 366.739C276.905 366.739 278.206 367.088 279.155 367.787C280.109 368.486 280.666 369.437 280.825 370.642ZM290.373 366.909V369.636H282.489V366.909H290.373ZM284.279 363.773H287.91V375.977C287.91 376.312 287.961 376.574 288.063 376.761C288.165 376.943 288.308 377.071 288.489 377.145C288.677 377.219 288.893 377.256 289.137 377.256C289.308 377.256 289.478 377.241 289.648 377.213C289.819 377.179 289.95 377.153 290.04 377.136L290.612 379.838C290.43 379.895 290.174 379.96 289.844 380.034C289.515 380.114 289.114 380.162 288.643 380.179C287.768 380.213 287.001 380.097 286.342 379.83C285.688 379.562 285.18 379.148 284.816 378.585C284.452 378.023 284.273 377.312 284.279 376.455V363.773ZM298.512 380.256C297.188 380.256 296.043 379.974 295.077 379.412C294.117 378.844 293.376 378.054 292.853 377.043C292.33 376.026 292.069 374.847 292.069 373.506C292.069 372.153 292.33 370.972 292.853 369.96C293.376 368.943 294.117 368.153 295.077 367.591C296.043 367.023 297.188 366.739 298.512 366.739C299.836 366.739 300.978 367.023 301.938 367.591C302.904 368.153 303.648 368.943 304.171 369.96C304.694 370.972 304.955 372.153 304.955 373.506C304.955 374.847 304.694 376.026 304.171 377.043C303.648 378.054 302.904 378.844 301.938 379.412C300.978 379.974 299.836 380.256 298.512 380.256ZM298.529 377.443C299.131 377.443 299.634 377.273 300.038 376.932C300.441 376.585 300.745 376.114 300.95 375.517C301.16 374.92 301.265 374.241 301.265 373.48C301.265 372.719 301.16 372.04 300.95 371.443C300.745 370.847 300.441 370.375 300.038 370.028C299.634 369.682 299.131 369.509 298.529 369.509C297.921 369.509 297.41 369.682 296.995 370.028C296.586 370.375 296.276 370.847 296.066 371.443C295.862 372.04 295.759 372.719 295.759 373.48C295.759 374.241 295.862 374.92 296.066 375.517C296.276 376.114 296.586 376.585 296.995 376.932C297.41 377.273 297.921 377.443 298.529 377.443ZM307.316 380V366.909H310.776V369.219H310.93C311.202 368.452 311.657 367.847 312.293 367.403C312.93 366.96 313.691 366.739 314.577 366.739C315.475 366.739 316.239 366.963 316.87 367.412C317.501 367.855 317.921 368.457 318.131 369.219H318.268C318.535 368.469 319.018 367.869 319.717 367.42C320.421 366.966 321.254 366.739 322.214 366.739C323.435 366.739 324.427 367.128 325.188 367.906C325.955 368.679 326.339 369.776 326.339 371.196V380H322.717V371.912C322.717 371.185 322.523 370.639 322.137 370.276C321.751 369.912 321.268 369.73 320.688 369.73C320.029 369.73 319.515 369.94 319.146 370.361C318.776 370.776 318.592 371.324 318.592 372.006V380H315.072V371.835C315.072 371.193 314.887 370.682 314.518 370.301C314.154 369.92 313.674 369.73 313.077 369.73C312.674 369.73 312.31 369.832 311.987 370.037C311.668 370.236 311.415 370.517 311.228 370.881C311.04 371.239 310.947 371.659 310.947 372.142V380H307.316ZM329.207 380V366.909H332.837V380H329.207ZM331.031 365.222C330.491 365.222 330.028 365.043 329.641 364.685C329.261 364.321 329.07 363.886 329.07 363.381C329.07 362.881 329.261 362.452 329.641 362.094C330.028 361.73 330.491 361.548 331.031 361.548C331.57 361.548 332.031 361.73 332.411 362.094C332.798 362.452 332.991 362.881 332.991 363.381C332.991 363.886 332.798 364.321 332.411 364.685C332.031 365.043 331.57 365.222 331.031 365.222ZM335.678 380V377.835L342.087 369.901V369.807H335.899V366.909H346.459V369.27L340.442 377.009V377.102H346.68V380H335.678ZM353.19 380.247C352.354 380.247 351.61 380.102 350.957 379.812C350.303 379.517 349.786 379.082 349.406 378.509C349.031 377.929 348.843 377.207 348.843 376.344C348.843 375.616 348.977 375.006 349.244 374.511C349.511 374.017 349.874 373.619 350.335 373.318C350.795 373.017 351.317 372.79 351.903 372.636C352.494 372.483 353.113 372.375 353.761 372.312C354.522 372.233 355.136 372.159 355.602 372.091C356.067 372.017 356.406 371.909 356.616 371.767C356.826 371.625 356.931 371.415 356.931 371.136V371.085C356.931 370.545 356.761 370.128 356.42 369.832C356.085 369.537 355.607 369.389 354.988 369.389C354.335 369.389 353.815 369.534 353.428 369.824C353.042 370.108 352.786 370.466 352.661 370.898L349.303 370.625C349.474 369.83 349.809 369.142 350.309 368.562C350.809 367.977 351.454 367.528 352.244 367.216C353.039 366.898 353.96 366.739 355.005 366.739C355.732 366.739 356.428 366.824 357.093 366.994C357.763 367.165 358.357 367.429 358.874 367.787C359.397 368.145 359.809 368.605 360.11 369.168C360.411 369.724 360.562 370.392 360.562 371.17V380H357.119V378.185H357.016C356.806 378.594 356.525 378.955 356.173 379.267C355.82 379.574 355.397 379.815 354.903 379.991C354.408 380.162 353.837 380.247 353.19 380.247ZM354.229 377.741C354.763 377.741 355.235 377.636 355.644 377.426C356.053 377.21 356.374 376.92 356.607 376.557C356.84 376.193 356.957 375.781 356.957 375.321V373.932C356.843 374.006 356.687 374.074 356.488 374.136C356.295 374.193 356.076 374.247 355.832 374.298C355.587 374.344 355.343 374.386 355.099 374.426C354.854 374.46 354.633 374.491 354.434 374.52C354.008 374.582 353.636 374.682 353.317 374.818C352.999 374.955 352.752 375.139 352.576 375.372C352.4 375.599 352.312 375.884 352.312 376.224C352.312 376.719 352.491 377.097 352.849 377.358C353.212 377.614 353.673 377.741 354.229 377.741ZM363.447 380V362.545H367.077V369.108H367.188C367.347 368.756 367.577 368.398 367.879 368.034C368.185 367.665 368.583 367.358 369.072 367.114C369.566 366.864 370.18 366.739 370.913 366.739C371.867 366.739 372.748 366.989 373.555 367.489C374.362 367.983 375.006 368.73 375.489 369.73C375.972 370.724 376.214 371.972 376.214 373.472C376.214 374.932 375.978 376.165 375.506 377.17C375.04 378.17 374.404 378.929 373.597 379.446C372.796 379.957 371.898 380.213 370.904 380.213C370.2 380.213 369.6 380.097 369.106 379.864C368.617 379.631 368.217 379.338 367.904 378.986C367.592 378.628 367.353 378.267 367.188 377.903H367.026V380H363.447ZM367.001 373.455C367.001 374.233 367.109 374.912 367.325 375.491C367.54 376.071 367.853 376.523 368.262 376.847C368.671 377.165 369.168 377.324 369.754 377.324C370.344 377.324 370.844 377.162 371.254 376.838C371.663 376.509 371.972 376.054 372.183 375.474C372.398 374.889 372.506 374.216 372.506 373.455C372.506 372.699 372.401 372.034 372.191 371.46C371.981 370.886 371.671 370.437 371.262 370.114C370.853 369.79 370.35 369.628 369.754 369.628C369.163 369.628 368.663 369.784 368.254 370.097C367.85 370.409 367.54 370.852 367.325 371.426C367.109 372 367.001 372.676 367.001 373.455ZM382.267 362.545V380H378.636V362.545H382.267ZM391.141 380.256C389.795 380.256 388.636 379.983 387.664 379.438C386.698 378.886 385.954 378.108 385.431 377.102C384.908 376.091 384.647 374.895 384.647 373.514C384.647 372.168 384.908 370.986 385.431 369.969C385.954 368.952 386.69 368.159 387.638 367.591C388.593 367.023 389.712 366.739 390.996 366.739C391.86 366.739 392.664 366.878 393.408 367.156C394.158 367.429 394.812 367.841 395.369 368.392C395.931 368.943 396.369 369.636 396.681 370.472C396.994 371.301 397.15 372.273 397.15 373.386V374.384H386.096V372.134H393.732C393.732 371.611 393.619 371.148 393.391 370.744C393.164 370.341 392.849 370.026 392.445 369.798C392.048 369.565 391.585 369.449 391.056 369.449C390.505 369.449 390.016 369.577 389.59 369.832C389.17 370.082 388.84 370.42 388.602 370.847C388.363 371.267 388.241 371.736 388.235 372.253V374.392C388.235 375.04 388.354 375.599 388.593 376.071C388.837 376.543 389.181 376.906 389.624 377.162C390.067 377.418 390.593 377.545 391.201 377.545C391.604 377.545 391.974 377.489 392.309 377.375C392.644 377.261 392.931 377.091 393.17 376.864C393.408 376.636 393.59 376.358 393.715 376.028L397.073 376.25C396.903 377.057 396.553 377.761 396.025 378.364C395.502 378.96 394.826 379.426 393.996 379.761C393.173 380.091 392.221 380.256 391.141 380.256ZM408.807 380.247C407.972 380.247 407.227 380.102 406.574 379.812C405.92 379.517 405.403 379.082 405.023 378.509C404.648 377.929 404.46 377.207 404.46 376.344C404.46 375.616 404.594 375.006 404.861 374.511C405.128 374.017 405.491 373.619 405.952 373.318C406.412 373.017 406.935 372.79 407.52 372.636C408.111 372.483 408.73 372.375 409.378 372.312C410.139 372.233 410.753 372.159 411.219 372.091C411.685 372.017 412.023 371.909 412.233 371.767C412.443 371.625 412.548 371.415 412.548 371.136V371.085C412.548 370.545 412.378 370.128 412.037 369.832C411.702 369.537 411.224 369.389 410.605 369.389C409.952 369.389 409.432 369.534 409.045 369.824C408.659 370.108 408.403 370.466 408.278 370.898L404.92 370.625C405.091 369.83 405.426 369.142 405.926 368.562C406.426 367.977 407.071 367.528 407.861 367.216C408.656 366.898 409.577 366.739 410.622 366.739C411.349 366.739 412.045 366.824 412.71 366.994C413.381 367.165 413.974 367.429 414.491 367.787C415.014 368.145 415.426 368.605 415.727 369.168C416.028 369.724 416.179 370.392 416.179 371.17V380H412.736V378.185H412.634C412.423 378.594 412.142 378.955 411.79 379.267C411.438 379.574 411.014 379.815 410.52 379.991C410.026 380.162 409.455 380.247 408.807 380.247ZM409.847 377.741C410.381 377.741 410.852 377.636 411.261 377.426C411.67 377.21 411.991 376.92 412.224 376.557C412.457 376.193 412.574 375.781 412.574 375.321V373.932C412.46 374.006 412.304 374.074 412.105 374.136C411.912 374.193 411.693 374.247 411.449 374.298C411.205 374.344 410.96 374.386 410.716 374.426C410.472 374.46 410.25 374.491 410.051 374.52C409.625 374.582 409.253 374.682 408.935 374.818C408.616 374.955 408.369 375.139 408.193 375.372C408.017 375.599 407.929 375.884 407.929 376.224C407.929 376.719 408.108 377.097 408.466 377.358C408.83 377.614 409.29 377.741 409.847 377.741ZM422.626 372.432V380H418.996V366.909H422.456V369.219H422.609C422.899 368.457 423.385 367.855 424.067 367.412C424.749 366.963 425.575 366.739 426.547 366.739C427.456 366.739 428.249 366.938 428.925 367.335C429.601 367.733 430.126 368.301 430.501 369.04C430.876 369.773 431.064 370.648 431.064 371.665V380H427.433V372.312C427.439 371.511 427.234 370.886 426.82 370.438C426.405 369.983 425.834 369.756 425.107 369.756C424.618 369.756 424.186 369.861 423.811 370.071C423.442 370.281 423.152 370.588 422.942 370.991C422.737 371.389 422.632 371.869 422.626 372.432ZM438.749 380.213C437.755 380.213 436.854 379.957 436.048 379.446C435.246 378.929 434.61 378.17 434.138 377.17C433.673 376.165 433.44 374.932 433.44 373.472C433.44 371.972 433.681 370.724 434.164 369.73C434.647 368.73 435.289 367.983 436.09 367.489C436.897 366.989 437.781 366.739 438.741 366.739C439.474 366.739 440.085 366.864 440.573 367.114C441.067 367.358 441.465 367.665 441.766 368.034C442.073 368.398 442.306 368.756 442.465 369.108H442.576V362.545H446.198V380H442.619V377.903H442.465C442.295 378.267 442.053 378.628 441.741 378.986C441.434 379.338 441.033 379.631 440.539 379.864C440.05 380.097 439.454 380.213 438.749 380.213ZM439.9 377.324C440.485 377.324 440.979 377.165 441.383 376.847C441.792 376.523 442.104 376.071 442.32 375.491C442.542 374.912 442.653 374.233 442.653 373.455C442.653 372.676 442.545 372 442.329 371.426C442.113 370.852 441.8 370.409 441.391 370.097C440.982 369.784 440.485 369.628 439.9 369.628C439.303 369.628 438.8 369.79 438.391 370.114C437.982 370.437 437.673 370.886 437.462 371.46C437.252 372.034 437.147 372.699 437.147 373.455C437.147 374.216 437.252 374.889 437.462 375.474C437.678 376.054 437.988 376.509 438.391 376.838C438.8 377.162 439.303 377.324 439.9 377.324ZM454.806 362.545H459.357L464.164 374.273H464.369L469.175 362.545H473.727V380H470.147V368.639H470.002L465.485 379.915H463.048L458.531 368.597H458.386V380H454.806V362.545ZM482.614 380.256C481.29 380.256 480.145 379.974 479.179 379.412C478.219 378.844 477.477 378.054 476.955 377.043C476.432 376.026 476.17 374.847 476.17 373.506C476.17 372.153 476.432 370.972 476.955 369.96C477.477 368.943 478.219 368.153 479.179 367.591C480.145 367.023 481.29 366.739 482.614 366.739C483.938 366.739 485.08 367.023 486.04 367.591C487.006 368.153 487.75 368.943 488.273 369.96C488.795 370.972 489.057 372.153 489.057 373.506C489.057 374.847 488.795 376.026 488.273 377.043C487.75 378.054 487.006 378.844 486.04 379.412C485.08 379.974 483.938 380.256 482.614 380.256ZM482.631 377.443C483.233 377.443 483.736 377.273 484.139 376.932C484.543 376.585 484.847 376.114 485.051 375.517C485.261 374.92 485.366 374.241 485.366 373.48C485.366 372.719 485.261 372.04 485.051 371.443C484.847 370.847 484.543 370.375 484.139 370.028C483.736 369.682 483.233 369.509 482.631 369.509C482.023 369.509 481.511 369.682 481.097 370.028C480.688 370.375 480.378 370.847 480.168 371.443C479.963 372.04 479.861 372.719 479.861 373.48C479.861 374.241 479.963 374.92 480.168 375.517C480.378 376.114 480.688 376.585 481.097 376.932C481.511 377.273 482.023 377.443 482.631 377.443ZM496.241 380.213C495.247 380.213 494.347 379.957 493.54 379.446C492.739 378.929 492.102 378.17 491.631 377.17C491.165 376.165 490.932 374.932 490.932 373.472C490.932 371.972 491.173 370.724 491.656 369.73C492.139 368.73 492.781 367.983 493.582 367.489C494.389 366.989 495.273 366.739 496.233 366.739C496.966 366.739 497.577 366.864 498.065 367.114C498.56 367.358 498.957 367.665 499.259 368.034C499.565 368.398 499.798 368.756 499.957 369.108H500.068V362.545H503.69V380H500.111V377.903H499.957C499.787 378.267 499.545 378.628 499.233 378.986C498.926 379.338 498.526 379.631 498.031 379.864C497.543 380.097 496.946 380.213 496.241 380.213ZM497.392 377.324C497.977 377.324 498.472 377.165 498.875 376.847C499.284 376.523 499.597 376.071 499.812 375.491C500.034 374.912 500.145 374.233 500.145 373.455C500.145 372.676 500.037 372 499.821 371.426C499.605 370.852 499.293 370.409 498.884 370.097C498.474 369.784 497.977 369.628 497.392 369.628C496.795 369.628 496.293 369.79 495.884 370.114C495.474 370.437 495.165 370.886 494.955 371.46C494.744 372.034 494.639 372.699 494.639 373.455C494.639 374.216 494.744 374.889 494.955 375.474C495.17 376.054 495.48 376.509 495.884 376.838C496.293 377.162 496.795 377.324 497.392 377.324ZM515.07 374.426V366.909H518.701V380H515.215V377.622H515.079C514.783 378.389 514.292 379.006 513.604 379.472C512.923 379.937 512.09 380.17 511.107 380.17C510.232 380.17 509.462 379.972 508.798 379.574C508.133 379.176 507.613 378.611 507.238 377.878C506.869 377.145 506.681 376.267 506.675 375.244V366.909H510.306V374.597C510.312 375.369 510.519 375.98 510.928 376.429C511.337 376.878 511.886 377.102 512.573 377.102C513.011 377.102 513.42 377.003 513.8 376.804C514.181 376.599 514.488 376.298 514.721 375.901C514.96 375.503 515.076 375.011 515.07 374.426ZM525.236 362.545V380H521.605V362.545H525.236ZM531.877 380.247C531.042 380.247 530.298 380.102 529.644 379.812C528.991 379.517 528.474 379.082 528.093 378.509C527.718 377.929 527.531 377.207 527.531 376.344C527.531 375.616 527.664 375.006 527.931 374.511C528.198 374.017 528.562 373.619 529.022 373.318C529.482 373.017 530.005 372.79 530.59 372.636C531.181 372.483 531.8 372.375 532.448 372.312C533.21 372.233 533.823 372.159 534.289 372.091C534.755 372.017 535.093 371.909 535.303 371.767C535.513 371.625 535.619 371.415 535.619 371.136V371.085C535.619 370.545 535.448 370.128 535.107 369.832C534.772 369.537 534.295 369.389 533.675 369.389C533.022 369.389 532.502 369.534 532.116 369.824C531.729 370.108 531.474 370.466 531.349 370.898L527.991 370.625C528.161 369.83 528.496 369.142 528.996 368.562C529.496 367.977 530.141 367.528 530.931 367.216C531.727 366.898 532.647 366.739 533.692 366.739C534.42 366.739 535.116 366.824 535.781 366.994C536.451 367.165 537.045 367.429 537.562 367.787C538.085 368.145 538.496 368.605 538.798 369.168C539.099 369.724 539.249 370.392 539.249 371.17V380H535.806V378.185H535.704C535.494 378.594 535.212 378.955 534.86 379.267C534.508 379.574 534.085 379.815 533.59 379.991C533.096 380.162 532.525 380.247 531.877 380.247ZM532.917 377.741C533.451 377.741 533.923 377.636 534.332 377.426C534.741 377.21 535.062 376.92 535.295 376.557C535.528 376.193 535.644 375.781 535.644 375.321V373.932C535.531 374.006 535.374 374.074 535.175 374.136C534.982 374.193 534.763 374.247 534.519 374.298C534.275 374.344 534.031 374.386 533.786 374.426C533.542 374.46 533.32 374.491 533.121 374.52C532.695 374.582 532.323 374.682 532.005 374.818C531.687 374.955 531.44 375.139 531.263 375.372C531.087 375.599 530.999 375.884 530.999 376.224C530.999 376.719 531.178 377.097 531.536 377.358C531.9 377.614 532.36 377.741 532.917 377.741ZM542.066 380V366.909H545.586V369.193H545.722C545.961 368.381 546.362 367.767 546.924 367.352C547.487 366.932 548.134 366.722 548.867 366.722C549.049 366.722 549.245 366.733 549.455 366.756C549.665 366.778 549.85 366.81 550.009 366.849V370.071C549.839 370.02 549.603 369.974 549.302 369.935C549.001 369.895 548.725 369.875 548.475 369.875C547.941 369.875 547.464 369.991 547.043 370.224C546.629 370.452 546.299 370.77 546.055 371.179C545.816 371.588 545.697 372.06 545.697 372.594V380H542.066ZM556.844 365.588V362.545H571.18V365.588H565.836V380H562.188V365.588H556.844ZM575.424 380.247C574.589 380.247 573.844 380.102 573.191 379.812C572.538 379.517 572.021 379.082 571.64 378.509C571.265 377.929 571.077 377.207 571.077 376.344C571.077 375.616 571.211 375.006 571.478 374.511C571.745 374.017 572.109 373.619 572.569 373.318C573.029 373.017 573.552 372.79 574.137 372.636C574.728 372.483 575.347 372.375 575.995 372.312C576.756 372.233 577.37 372.159 577.836 372.091C578.302 372.017 578.64 371.909 578.85 371.767C579.06 371.625 579.165 371.415 579.165 371.136V371.085C579.165 370.545 578.995 370.128 578.654 369.832C578.319 369.537 577.842 369.389 577.222 369.389C576.569 369.389 576.049 369.534 575.663 369.824C575.276 370.108 575.021 370.466 574.896 370.898L571.538 370.625C571.708 369.83 572.043 369.142 572.543 368.562C573.043 367.977 573.688 367.528 574.478 367.216C575.273 366.898 576.194 366.739 577.239 366.739C577.967 366.739 578.663 366.824 579.327 366.994C579.998 367.165 580.592 367.429 581.109 367.787C581.631 368.145 582.043 368.605 582.344 369.168C582.646 369.724 582.796 370.392 582.796 371.17V380H579.353V378.185H579.251C579.04 378.594 578.759 378.955 578.407 379.267C578.055 379.574 577.631 379.815 577.137 379.991C576.643 380.162 576.072 380.247 575.424 380.247ZM576.464 377.741C576.998 377.741 577.469 377.636 577.879 377.426C578.288 377.21 578.609 376.92 578.842 376.557C579.075 376.193 579.191 375.781 579.191 375.321V373.932C579.077 374.006 578.921 374.074 578.722 374.136C578.529 374.193 578.31 374.247 578.066 374.298C577.822 374.344 577.577 374.386 577.333 374.426C577.089 374.46 576.867 374.491 576.668 374.52C576.242 374.582 575.87 374.682 575.552 374.818C575.234 374.955 574.987 375.139 574.81 375.372C574.634 375.599 574.546 375.884 574.546 376.224C574.546 376.719 574.725 377.097 575.083 377.358C575.447 377.614 575.907 377.741 576.464 377.741ZM596.505 370.642L593.181 370.847C593.124 370.562 593.002 370.307 592.815 370.08C592.627 369.847 592.38 369.662 592.073 369.526C591.772 369.384 591.411 369.312 590.991 369.312C590.428 369.312 589.954 369.432 589.567 369.67C589.181 369.903 588.988 370.216 588.988 370.608C588.988 370.92 589.113 371.185 589.363 371.401C589.613 371.616 590.042 371.79 590.65 371.92L593.019 372.398C594.292 372.659 595.241 373.08 595.866 373.659C596.491 374.239 596.803 375 596.803 375.943C596.803 376.801 596.55 377.554 596.045 378.202C595.545 378.849 594.857 379.355 593.982 379.719C593.113 380.077 592.11 380.256 590.974 380.256C589.241 380.256 587.86 379.895 586.832 379.173C585.809 378.446 585.21 377.457 585.033 376.207L588.604 376.02C588.712 376.548 588.974 376.952 589.388 377.23C589.803 377.503 590.335 377.639 590.982 377.639C591.619 377.639 592.13 377.517 592.516 377.273C592.908 377.023 593.107 376.702 593.113 376.31C593.107 375.98 592.968 375.71 592.695 375.5C592.423 375.284 592.002 375.119 591.434 375.006L589.167 374.554C587.888 374.298 586.937 373.855 586.312 373.224C585.692 372.594 585.383 371.79 585.383 370.812C585.383 369.972 585.61 369.247 586.065 368.639C586.525 368.031 587.17 367.562 587.999 367.233C588.835 366.903 589.812 366.739 590.931 366.739C592.585 366.739 593.886 367.088 594.835 367.787C595.789 368.486 596.346 369.437 596.505 370.642ZM602.379 376.233L602.388 371.878H602.916L607.109 366.909H611.277L605.643 373.489H604.783L602.379 376.233ZM599.089 380V362.545H602.72V380H599.089ZM607.271 380L603.419 374.298L605.839 371.733L611.524 380H607.271ZM618.681 362.545H623.232L628.039 374.273H628.244L633.05 362.545H637.602V380H634.022V368.639H633.877L629.36 379.915H626.923L622.406 368.597H622.261V380H618.681V362.545ZM644.307 380.247C643.472 380.247 642.727 380.102 642.074 379.812C641.42 379.517 640.903 379.082 640.523 378.509C640.148 377.929 639.96 377.207 639.96 376.344C639.96 375.616 640.094 375.006 640.361 374.511C640.628 374.017 640.991 373.619 641.452 373.318C641.912 373.017 642.435 372.79 643.02 372.636C643.611 372.483 644.23 372.375 644.878 372.312C645.639 372.233 646.253 372.159 646.719 372.091C647.185 372.017 647.523 371.909 647.733 371.767C647.943 371.625 648.048 371.415 648.048 371.136V371.085C648.048 370.545 647.878 370.128 647.537 369.832C647.202 369.537 646.724 369.389 646.105 369.389C645.452 369.389 644.932 369.534 644.545 369.824C644.159 370.108 643.903 370.466 643.778 370.898L640.42 370.625C640.591 369.83 640.926 369.142 641.426 368.562C641.926 367.977 642.571 367.528 643.361 367.216C644.156 366.898 645.077 366.739 646.122 366.739C646.849 366.739 647.545 366.824 648.21 366.994C648.881 367.165 649.474 367.429 649.991 367.787C650.514 368.145 650.926 368.605 651.227 369.168C651.528 369.724 651.679 370.392 651.679 371.17V380H648.236V378.185H648.134C647.923 378.594 647.642 378.955 647.29 379.267C646.938 379.574 646.514 379.815 646.02 379.991C645.526 380.162 644.955 380.247 644.307 380.247ZM645.347 377.741C645.881 377.741 646.352 377.636 646.761 377.426C647.17 377.21 647.491 376.92 647.724 376.557C647.957 376.193 648.074 375.781 648.074 375.321V373.932C647.96 374.006 647.804 374.074 647.605 374.136C647.412 374.193 647.193 374.247 646.949 374.298C646.705 374.344 646.46 374.386 646.216 374.426C645.972 374.46 645.75 374.491 645.551 374.52C645.125 374.582 644.753 374.682 644.435 374.818C644.116 374.955 643.869 375.139 643.693 375.372C643.517 375.599 643.429 375.884 643.429 376.224C643.429 376.719 643.608 377.097 643.966 377.358C644.33 377.614 644.79 377.741 645.347 377.741ZM658.126 372.432V380H654.496V366.909H657.956V369.219H658.109C658.399 368.457 658.885 367.855 659.567 367.412C660.249 366.963 661.075 366.739 662.047 366.739C662.956 366.739 663.749 366.938 664.425 367.335C665.101 367.733 665.626 368.301 666.001 369.04C666.376 369.773 666.564 370.648 666.564 371.665V380H662.933V372.312C662.939 371.511 662.734 370.886 662.32 370.438C661.905 369.983 661.334 369.756 660.607 369.756C660.118 369.756 659.686 369.861 659.311 370.071C658.942 370.281 658.652 370.588 658.442 370.991C658.237 371.389 658.132 371.869 658.126 372.432ZM673.158 380.247C672.323 380.247 671.579 380.102 670.925 379.812C670.272 379.517 669.755 379.082 669.374 378.509C668.999 377.929 668.812 377.207 668.812 376.344C668.812 375.616 668.945 375.006 669.212 374.511C669.479 374.017 669.843 373.619 670.303 373.318C670.763 373.017 671.286 372.79 671.871 372.636C672.462 372.483 673.082 372.375 673.729 372.312C674.491 372.233 675.104 372.159 675.57 372.091C676.036 372.017 676.374 371.909 676.585 371.767C676.795 371.625 676.9 371.415 676.9 371.136V371.085C676.9 370.545 676.729 370.128 676.388 369.832C676.053 369.537 675.576 369.389 674.957 369.389C674.303 369.389 673.783 369.534 673.397 369.824C673.011 370.108 672.755 370.466 672.63 370.898L669.272 370.625C669.442 369.83 669.778 369.142 670.278 368.562C670.778 367.977 671.423 367.528 672.212 367.216C673.008 366.898 673.928 366.739 674.974 366.739C675.701 366.739 676.397 366.824 677.062 366.994C677.732 367.165 678.326 367.429 678.843 367.787C679.366 368.145 679.778 368.605 680.079 369.168C680.38 369.724 680.531 370.392 680.531 371.17V380H677.087V378.185H676.985C676.775 378.594 676.494 378.955 676.141 379.267C675.789 379.574 675.366 379.815 674.871 379.991C674.377 380.162 673.806 380.247 673.158 380.247ZM674.198 377.741C674.732 377.741 675.204 377.636 675.613 377.426C676.022 377.21 676.343 376.92 676.576 376.557C676.809 376.193 676.925 375.781 676.925 375.321V373.932C676.812 374.006 676.656 374.074 676.457 374.136C676.263 374.193 676.045 374.247 675.8 374.298C675.556 374.344 675.312 374.386 675.067 374.426C674.823 374.46 674.602 374.491 674.403 374.52C673.977 374.582 673.604 374.682 673.286 374.818C672.968 374.955 672.721 375.139 672.545 375.372C672.369 375.599 672.281 375.884 672.281 376.224C672.281 376.719 672.46 377.097 672.817 377.358C673.181 377.614 673.641 377.741 674.198 377.741ZM689.245 385.182C688.069 385.182 687.06 385.02 686.219 384.696C685.384 384.378 684.719 383.943 684.225 383.392C683.731 382.841 683.41 382.222 683.262 381.534L686.62 381.082C686.722 381.344 686.884 381.588 687.106 381.815C687.327 382.043 687.62 382.224 687.984 382.361C688.353 382.503 688.802 382.574 689.33 382.574C690.12 382.574 690.771 382.381 691.282 381.994C691.799 381.614 692.058 380.974 692.058 380.077V377.682H691.904C691.745 378.045 691.506 378.389 691.188 378.713C690.87 379.037 690.461 379.301 689.961 379.506C689.461 379.71 688.864 379.812 688.171 379.812C687.188 379.812 686.293 379.585 685.487 379.131C684.685 378.67 684.046 377.969 683.569 377.026C683.097 376.077 682.862 374.878 682.862 373.429C682.862 371.946 683.103 370.707 683.586 369.713C684.069 368.719 684.711 367.974 685.512 367.48C686.319 366.986 687.202 366.739 688.163 366.739C688.896 366.739 689.509 366.864 690.004 367.114C690.498 367.358 690.896 367.665 691.197 368.034C691.504 368.398 691.739 368.756 691.904 369.108H692.04V366.909H695.646V380.128C695.646 381.241 695.373 382.173 694.827 382.923C694.282 383.673 693.526 384.236 692.56 384.611C691.6 384.991 690.495 385.182 689.245 385.182ZM689.322 377.085C689.907 377.085 690.401 376.94 690.805 376.651C691.214 376.355 691.526 375.935 691.742 375.389C691.964 374.838 692.075 374.179 692.075 373.412C692.075 372.645 691.967 371.98 691.751 371.418C691.535 370.849 691.222 370.409 690.813 370.097C690.404 369.784 689.907 369.628 689.322 369.628C688.725 369.628 688.222 369.79 687.813 370.114C687.404 370.432 687.094 370.875 686.884 371.443C686.674 372.011 686.569 372.668 686.569 373.412C686.569 374.168 686.674 374.821 686.884 375.372C687.1 375.918 687.41 376.341 687.813 376.642C688.222 376.937 688.725 377.085 689.322 377.085ZM704.501 380.256C703.154 380.256 701.995 379.983 701.023 379.438C700.058 378.886 699.313 378.108 698.79 377.102C698.268 376.091 698.006 374.895 698.006 373.514C698.006 372.168 698.268 370.986 698.79 369.969C699.313 368.952 700.049 368.159 700.998 367.591C701.952 367.023 703.072 366.739 704.356 366.739C705.219 366.739 706.023 366.878 706.768 367.156C707.518 367.429 708.171 367.841 708.728 368.392C709.29 368.943 709.728 369.636 710.04 370.472C710.353 371.301 710.509 372.273 710.509 373.386V374.384H699.455V372.134H707.092C707.092 371.611 706.978 371.148 706.751 370.744C706.523 370.341 706.208 370.026 705.805 369.798C705.407 369.565 704.944 369.449 704.415 369.449C703.864 369.449 703.376 369.577 702.95 369.832C702.529 370.082 702.2 370.42 701.961 370.847C701.722 371.267 701.6 371.736 701.594 372.253V374.392C701.594 375.04 701.714 375.599 701.952 376.071C702.197 376.543 702.54 376.906 702.984 377.162C703.427 377.418 703.952 377.545 704.56 377.545C704.964 377.545 705.333 377.489 705.668 377.375C706.004 377.261 706.29 377.091 706.529 376.864C706.768 376.636 706.95 376.358 707.075 376.028L710.433 376.25C710.262 377.057 709.913 377.761 709.384 378.364C708.862 378.96 708.185 379.426 707.356 379.761C706.532 380.091 705.58 380.256 704.501 380.256ZM712.879 380V366.909H716.398V369.193H716.535C716.773 368.381 717.174 367.767 717.737 367.352C718.299 366.932 718.947 366.722 719.68 366.722C719.862 366.722 720.058 366.733 720.268 366.756C720.478 366.778 720.663 366.81 720.822 366.849V370.071C720.651 370.02 720.415 369.974 720.114 369.935C719.813 369.895 719.538 369.875 719.288 369.875C718.754 369.875 718.276 369.991 717.856 370.224C717.441 370.452 717.112 370.77 716.867 371.179C716.629 371.588 716.509 372.06 716.509 372.594V380H712.879ZM728.322 380V362.545H735.208C736.532 362.545 737.66 362.798 738.592 363.304C739.523 363.804 740.234 364.5 740.722 365.392C741.217 366.278 741.464 367.301 741.464 368.46C741.464 369.619 741.214 370.642 740.714 371.528C740.214 372.415 739.489 373.105 738.54 373.599C737.597 374.094 736.455 374.341 735.114 374.341H730.725V371.384H734.518C735.228 371.384 735.813 371.261 736.273 371.017C736.739 370.767 737.086 370.423 737.313 369.986C737.546 369.543 737.663 369.034 737.663 368.46C737.663 367.881 737.546 367.375 737.313 366.943C737.086 366.506 736.739 366.168 736.273 365.929C735.808 365.685 735.217 365.562 734.501 365.562H732.012V380H728.322ZM747.423 362.545V380H743.793V362.545H747.423ZM754.065 380.247C753.229 380.247 752.485 380.102 751.832 379.812C751.178 379.517 750.661 379.082 750.281 378.509C749.906 377.929 749.718 377.207 749.718 376.344C749.718 375.616 749.852 375.006 750.119 374.511C750.386 374.017 750.749 373.619 751.21 373.318C751.67 373.017 752.192 372.79 752.778 372.636C753.369 372.483 753.988 372.375 754.636 372.312C755.397 372.233 756.011 372.159 756.477 372.091C756.942 372.017 757.281 371.909 757.491 371.767C757.701 371.625 757.806 371.415 757.806 371.136V371.085C757.806 370.545 757.636 370.128 757.295 369.832C756.96 369.537 756.482 369.389 755.863 369.389C755.21 369.389 754.69 369.534 754.303 369.824C753.917 370.108 753.661 370.466 753.536 370.898L750.178 370.625C750.349 369.83 750.684 369.142 751.184 368.562C751.684 367.977 752.329 367.528 753.119 367.216C753.914 366.898 754.835 366.739 755.88 366.739C756.607 366.739 757.303 366.824 757.968 366.994C758.638 367.165 759.232 367.429 759.749 367.787C760.272 368.145 760.684 368.605 760.985 369.168C761.286 369.724 761.437 370.392 761.437 371.17V380H757.994V378.185H757.891C757.681 378.594 757.4 378.955 757.048 379.267C756.695 379.574 756.272 379.815 755.778 379.991C755.283 380.162 754.712 380.247 754.065 380.247ZM755.104 377.741C755.638 377.741 756.11 377.636 756.519 377.426C756.928 377.21 757.249 376.92 757.482 376.557C757.715 376.193 757.832 375.781 757.832 375.321V373.932C757.718 374.006 757.562 374.074 757.363 374.136C757.17 374.193 756.951 374.247 756.707 374.298C756.462 374.344 756.218 374.386 755.974 374.426C755.729 374.46 755.508 374.491 755.309 374.52C754.883 374.582 754.511 374.682 754.192 374.818C753.874 374.955 753.627 375.139 753.451 375.372C753.275 375.599 753.187 375.884 753.187 376.224C753.187 376.719 753.366 377.097 753.724 377.358C754.087 377.614 754.548 377.741 755.104 377.741ZM775.146 370.642L771.822 370.847C771.765 370.562 771.643 370.307 771.455 370.08C771.268 369.847 771.021 369.662 770.714 369.526C770.413 369.384 770.052 369.312 769.631 369.312C769.069 369.312 768.594 369.432 768.208 369.67C767.822 369.903 767.629 370.216 767.629 370.608C767.629 370.92 767.754 371.185 768.004 371.401C768.254 371.616 768.683 371.79 769.29 371.92L771.66 372.398C772.933 372.659 773.881 373.08 774.506 373.659C775.131 374.239 775.444 375 775.444 375.943C775.444 376.801 775.191 377.554 774.685 378.202C774.185 378.849 773.498 379.355 772.623 379.719C771.754 380.077 770.751 380.256 769.614 380.256C767.881 380.256 766.501 379.895 765.472 379.173C764.45 378.446 763.85 377.457 763.674 376.207L767.245 376.02C767.353 376.548 767.614 376.952 768.029 377.23C768.444 377.503 768.975 377.639 769.623 377.639C770.259 377.639 770.771 377.517 771.157 377.273C771.549 377.023 771.748 376.702 771.754 376.31C771.748 375.98 771.609 375.71 771.336 375.5C771.063 375.284 770.643 375.119 770.075 375.006L767.808 374.554C766.529 374.298 765.577 373.855 764.952 373.224C764.333 372.594 764.023 371.79 764.023 370.812C764.023 369.972 764.251 369.247 764.705 368.639C765.165 368.031 765.81 367.562 766.64 367.233C767.475 366.903 768.452 366.739 769.572 366.739C771.225 366.739 772.526 367.088 773.475 367.787C774.43 368.486 774.987 369.437 775.146 370.642ZM777.73 380V366.909H781.19V369.219H781.344C781.616 368.452 782.071 367.847 782.707 367.403C783.344 366.96 784.105 366.739 784.991 366.739C785.889 366.739 786.653 366.963 787.284 367.412C787.915 367.855 788.335 368.457 788.545 369.219H788.682C788.949 368.469 789.432 367.869 790.131 367.42C790.835 366.966 791.668 366.739 792.628 366.739C793.849 366.739 794.841 367.128 795.602 367.906C796.369 368.679 796.753 369.776 796.753 371.196V380H793.131V371.912C793.131 371.185 792.938 370.639 792.551 370.276C792.165 369.912 791.682 369.73 791.102 369.73C790.443 369.73 789.929 369.94 789.56 370.361C789.19 370.776 789.006 371.324 789.006 372.006V380H785.486V371.835C785.486 371.193 785.301 370.682 784.932 370.301C784.568 369.92 784.088 369.73 783.491 369.73C783.088 369.73 782.724 369.832 782.401 370.037C782.082 370.236 781.83 370.517 781.642 370.881C781.455 371.239 781.361 371.659 781.361 372.142V380H777.73ZM805.536 380.256C804.212 380.256 803.067 379.974 802.101 379.412C801.141 378.844 800.399 378.054 799.876 377.043C799.354 376.026 799.092 374.847 799.092 373.506C799.092 372.153 799.354 370.972 799.876 369.96C800.399 368.943 801.141 368.153 802.101 367.591C803.067 367.023 804.212 366.739 805.536 366.739C806.859 366.739 808.001 367.023 808.962 367.591C809.928 368.153 810.672 368.943 811.195 369.96C811.717 370.972 811.979 372.153 811.979 373.506C811.979 374.847 811.717 376.026 811.195 377.043C810.672 378.054 809.928 378.844 808.962 379.412C808.001 379.974 806.859 380.256 805.536 380.256ZM805.553 377.443C806.155 377.443 806.658 377.273 807.061 376.932C807.464 376.585 807.768 376.114 807.973 375.517C808.183 374.92 808.288 374.241 808.288 373.48C808.288 372.719 808.183 372.04 807.973 371.443C807.768 370.847 807.464 370.375 807.061 370.028C806.658 369.682 806.155 369.509 805.553 369.509C804.945 369.509 804.433 369.682 804.018 370.028C803.609 370.375 803.3 370.847 803.089 371.443C802.885 372.04 802.783 372.719 802.783 373.48C802.783 374.241 802.885 374.92 803.089 375.517C803.3 376.114 803.609 376.585 804.018 376.932C804.433 377.273 804.945 377.443 805.553 377.443ZM814.339 380V366.909H817.97V380H814.339ZM816.163 365.222C815.624 365.222 815.161 365.043 814.774 364.685C814.393 364.321 814.203 363.886 814.203 363.381C814.203 362.881 814.393 362.452 814.774 362.094C815.161 361.73 815.624 361.548 816.163 361.548C816.703 361.548 817.163 361.73 817.544 362.094C817.93 362.452 818.124 362.881 818.124 363.381C818.124 363.886 817.93 364.321 817.544 364.685C817.163 365.043 816.703 365.222 816.163 365.222ZM825.702 380.213C824.708 380.213 823.808 379.957 823.001 379.446C822.2 378.929 821.563 378.17 821.092 377.17C820.626 376.165 820.393 374.932 820.393 373.472C820.393 371.972 820.634 370.724 821.117 369.73C821.6 368.73 822.242 367.983 823.043 367.489C823.85 366.989 824.734 366.739 825.694 366.739C826.427 366.739 827.038 366.864 827.526 367.114C828.021 367.358 828.418 367.665 828.719 368.034C829.026 368.398 829.259 368.756 829.418 369.108H829.529V362.545H833.151V380H829.572V377.903H829.418C829.248 378.267 829.006 378.628 828.694 378.986C828.387 379.338 827.987 379.631 827.492 379.864C827.004 380.097 826.407 380.213 825.702 380.213ZM826.853 377.324C827.438 377.324 827.933 377.165 828.336 376.847C828.745 376.523 829.058 376.071 829.273 375.491C829.495 374.912 829.606 374.233 829.606 373.455C829.606 372.676 829.498 372 829.282 371.426C829.066 370.852 828.754 370.409 828.344 370.097C827.935 369.784 827.438 369.628 826.853 369.628C826.256 369.628 825.754 369.79 825.344 370.114C824.935 370.437 824.626 370.886 824.415 371.46C824.205 372.034 824.1 372.699 824.1 373.455C824.1 374.216 824.205 374.889 824.415 375.474C824.631 376.054 824.941 376.509 825.344 376.838C825.754 377.162 826.256 377.324 826.853 377.324ZM848.731 366.909V369.636H840.651V366.909H848.731ZM842.501 380V365.963C842.501 365.014 842.685 364.227 843.055 363.602C843.43 362.977 843.941 362.509 844.589 362.196C845.237 361.884 845.972 361.727 846.796 361.727C847.353 361.727 847.862 361.77 848.322 361.855C848.788 361.94 849.134 362.017 849.362 362.085L848.714 364.812C848.572 364.767 848.396 364.724 848.185 364.685C847.981 364.645 847.771 364.625 847.555 364.625C847.021 364.625 846.648 364.75 846.438 365C846.228 365.244 846.123 365.588 846.123 366.031V380H842.501ZM856.395 380.256C855.071 380.256 853.926 379.974 852.96 379.412C852 378.844 851.259 378.054 850.736 377.043C850.213 376.026 849.952 374.847 849.952 373.506C849.952 372.153 850.213 370.972 850.736 369.96C851.259 368.943 852 368.153 852.96 367.591C853.926 367.023 855.071 366.739 856.395 366.739C857.719 366.739 858.861 367.023 859.821 367.591C860.787 368.153 861.531 368.943 862.054 369.96C862.577 370.972 862.838 372.153 862.838 373.506C862.838 374.847 862.577 376.026 862.054 377.043C861.531 378.054 860.787 378.844 859.821 379.412C858.861 379.974 857.719 380.256 856.395 380.256ZM856.412 377.443C857.014 377.443 857.517 377.273 857.92 376.932C858.324 376.585 858.628 376.114 858.832 375.517C859.043 374.92 859.148 374.241 859.148 373.48C859.148 372.719 859.043 372.04 858.832 371.443C858.628 370.847 858.324 370.375 857.92 370.028C857.517 369.682 857.014 369.509 856.412 369.509C855.804 369.509 855.293 369.682 854.878 370.028C854.469 370.375 854.159 370.847 853.949 371.443C853.744 372.04 853.642 372.719 853.642 373.48C853.642 374.241 853.744 374.92 853.949 375.517C854.159 376.114 854.469 376.585 854.878 376.932C855.293 377.273 855.804 377.443 856.412 377.443ZM865.199 380V366.909H868.719V369.193H868.855C869.094 368.381 869.494 367.767 870.057 367.352C870.619 366.932 871.267 366.722 872 366.722C872.182 366.722 872.378 366.733 872.588 366.756C872.798 366.778 872.983 366.81 873.142 366.849V370.071C872.972 370.02 872.736 369.974 872.435 369.935C872.134 369.895 871.858 369.875 871.608 369.875C871.074 369.875 870.597 369.991 870.176 370.224C869.761 370.452 869.432 370.77 869.188 371.179C868.949 371.588 868.83 372.06 868.83 372.594V380H865.199ZM880.642 380V362.545H884.332V370.241H884.562L890.844 362.545H895.267L888.79 370.361L895.344 380H890.929L886.148 372.824L884.332 375.04V380H880.642ZM903.376 380H897.189V362.545H903.428C905.183 362.545 906.695 362.895 907.962 363.594C909.229 364.287 910.203 365.284 910.885 366.585C911.572 367.886 911.916 369.443 911.916 371.256C911.916 373.074 911.572 374.636 910.885 375.943C910.203 377.25 909.223 378.253 907.945 378.952C906.672 379.651 905.149 380 903.376 380ZM900.879 376.838H903.223C904.314 376.838 905.232 376.645 905.976 376.259C906.726 375.866 907.288 375.261 907.663 374.443C908.044 373.619 908.234 372.557 908.234 371.256C908.234 369.966 908.044 368.912 907.663 368.094C907.288 367.276 906.729 366.673 905.984 366.287C905.24 365.901 904.322 365.707 903.232 365.707H900.879V376.838ZM914.65 380V362.545H926.411V365.588H918.34V369.747H925.806V372.79H918.34V376.957H926.445V380H914.65ZM934.9 380V362.545H941.786C943.11 362.545 944.238 362.798 945.17 363.304C946.102 363.804 946.812 364.5 947.3 365.392C947.795 366.278 948.042 367.301 948.042 368.46C948.042 369.619 947.792 370.642 947.292 371.528C946.792 372.415 946.067 373.105 945.119 373.599C944.175 374.094 943.033 374.341 941.692 374.341H937.303V371.384H941.096C941.806 371.384 942.391 371.261 942.852 371.017C943.317 370.767 943.664 370.423 943.891 369.986C944.124 369.543 944.241 369.034 944.241 368.46C944.241 367.881 944.124 367.375 943.891 366.943C943.664 366.506 943.317 366.168 942.852 365.929C942.386 365.685 941.795 365.562 941.079 365.562H938.59V380H934.9ZM954.001 362.545V380H950.371V362.545H954.001ZM960.643 380.247C959.808 380.247 959.063 380.102 958.41 379.812C957.756 379.517 957.239 379.082 956.859 378.509C956.484 377.929 956.296 377.207 956.296 376.344C956.296 375.616 956.43 375.006 956.697 374.511C956.964 374.017 957.327 373.619 957.788 373.318C958.248 373.017 958.771 372.79 959.356 372.636C959.947 372.483 960.566 372.375 961.214 372.312C961.975 372.233 962.589 372.159 963.055 372.091C963.521 372.017 963.859 371.909 964.069 371.767C964.279 371.625 964.384 371.415 964.384 371.136V371.085C964.384 370.545 964.214 370.128 963.873 369.832C963.538 369.537 963.06 369.389 962.441 369.389C961.788 369.389 961.268 369.534 960.881 369.824C960.495 370.108 960.239 370.466 960.114 370.898L956.756 370.625C956.927 369.83 957.262 369.142 957.762 368.562C958.262 367.977 958.907 367.528 959.697 367.216C960.492 366.898 961.413 366.739 962.458 366.739C963.185 366.739 963.881 366.824 964.546 366.994C965.217 367.165 965.81 367.429 966.327 367.787C966.85 368.145 967.262 368.605 967.563 369.168C967.864 369.724 968.015 370.392 968.015 371.17V380H964.572V378.185H964.469C964.259 378.594 963.978 378.955 963.626 379.267C963.273 379.574 962.85 379.815 962.356 379.991C961.862 380.162 961.29 380.247 960.643 380.247ZM961.683 377.741C962.217 377.741 962.688 377.636 963.097 377.426C963.506 377.21 963.827 376.92 964.06 376.557C964.293 376.193 964.41 375.781 964.41 375.321V373.932C964.296 374.006 964.14 374.074 963.941 374.136C963.748 374.193 963.529 374.247 963.285 374.298C963.04 374.344 962.796 374.386 962.552 374.426C962.308 374.46 962.086 374.491 961.887 374.52C961.461 374.582 961.089 374.682 960.771 374.818C960.452 374.955 960.205 375.139 960.029 375.372C959.853 375.599 959.765 375.884 959.765 376.224C959.765 376.719 959.944 377.097 960.302 377.358C960.665 377.614 961.126 377.741 961.683 377.741ZM981.724 370.642L978.4 370.847C978.343 370.562 978.221 370.307 978.033 370.08C977.846 369.847 977.599 369.662 977.292 369.526C976.991 369.384 976.63 369.312 976.21 369.312C975.647 369.312 975.173 369.432 974.786 369.67C974.4 369.903 974.207 370.216 974.207 370.608C974.207 370.92 974.332 371.185 974.582 371.401C974.832 371.616 975.261 371.79 975.869 371.92L978.238 372.398C979.511 372.659 980.46 373.08 981.085 373.659C981.71 374.239 982.022 375 982.022 375.943C982.022 376.801 981.769 377.554 981.263 378.202C980.763 378.849 980.076 379.355 979.201 379.719C978.332 380.077 977.329 380.256 976.192 380.256C974.46 380.256 973.079 379.895 972.05 379.173C971.028 378.446 970.428 377.457 970.252 376.207L973.823 376.02C973.931 376.548 974.192 376.952 974.607 377.23C975.022 377.503 975.553 377.639 976.201 377.639C976.837 377.639 977.349 377.517 977.735 377.273C978.127 377.023 978.326 376.702 978.332 376.31C978.326 375.98 978.187 375.71 977.914 375.5C977.641 375.284 977.221 375.119 976.653 375.006L974.386 374.554C973.107 374.298 972.156 373.855 971.531 373.224C970.911 372.594 970.602 371.79 970.602 370.812C970.602 369.972 970.829 369.247 971.283 368.639C971.744 368.031 972.388 367.562 973.218 367.233C974.053 366.903 975.031 366.739 976.15 366.739C977.803 366.739 979.104 367.088 980.053 367.787C981.008 368.486 981.565 369.437 981.724 370.642ZM984.308 380V366.909H987.768V369.219H987.922C988.195 368.452 988.649 367.847 989.286 367.403C989.922 366.96 990.683 366.739 991.57 366.739C992.467 366.739 993.232 366.963 993.862 367.412C994.493 367.855 994.913 368.457 995.124 369.219H995.26C995.527 368.469 996.01 367.869 996.709 367.42C997.413 366.966 998.246 366.739 999.206 366.739C1000.43 366.739 1001.42 367.128 1002.18 367.906C1002.95 368.679 1003.33 369.776 1003.33 371.196V380H999.709V371.912C999.709 371.185 999.516 370.639 999.129 370.276C998.743 369.912 998.26 369.73 997.68 369.73C997.021 369.73 996.507 369.94 996.138 370.361C995.768 370.776 995.584 371.324 995.584 372.006V380H992.064V371.835C992.064 371.193 991.879 370.682 991.51 370.301C991.146 369.92 990.666 369.73 990.07 369.73C989.666 369.73 989.303 369.832 988.979 370.037C988.661 370.236 988.408 370.517 988.22 370.881C988.033 371.239 987.939 371.659 987.939 372.142V380H984.308ZM1009.93 380.247C1009.1 380.247 1008.35 380.102 1007.7 379.812C1007.05 379.517 1006.53 379.082 1006.15 378.509C1005.77 377.929 1005.59 377.207 1005.59 376.344C1005.59 375.616 1005.72 375.006 1005.99 374.511C1006.25 374.017 1006.62 373.619 1007.08 373.318C1007.54 373.017 1008.06 372.79 1008.64 372.636C1009.24 372.483 1009.86 372.375 1010.5 372.312C1011.26 372.233 1011.88 372.159 1012.34 372.091C1012.81 372.017 1013.15 371.909 1013.36 371.767C1013.57 371.625 1013.67 371.415 1013.67 371.136V371.085C1013.67 370.545 1013.5 370.128 1013.16 369.832C1012.83 369.537 1012.35 369.389 1011.73 369.389C1011.08 369.389 1010.56 369.534 1010.17 369.824C1009.78 370.108 1009.53 370.466 1009.4 370.898L1006.05 370.625C1006.22 369.83 1006.55 369.142 1007.05 368.562C1007.55 367.977 1008.2 367.528 1008.99 367.216C1009.78 366.898 1010.7 366.739 1011.75 366.739C1012.47 366.739 1013.17 366.824 1013.84 366.994C1014.51 367.165 1015.1 367.429 1015.62 367.787C1016.14 368.145 1016.55 368.605 1016.85 369.168C1017.15 369.724 1017.3 370.392 1017.3 371.17V380H1013.86V378.185H1013.76C1013.55 378.594 1013.27 378.955 1012.91 379.267C1012.56 379.574 1012.14 379.815 1011.64 379.991C1011.15 380.162 1010.58 380.247 1009.93 380.247ZM1010.97 377.741C1011.51 377.741 1011.98 377.636 1012.39 377.426C1012.8 377.21 1013.12 376.92 1013.35 376.557C1013.58 376.193 1013.7 375.781 1013.7 375.321V373.932C1013.59 374.006 1013.43 374.074 1013.23 374.136C1013.04 374.193 1012.82 374.247 1012.57 374.298C1012.33 374.344 1012.09 374.386 1011.84 374.426C1011.6 374.46 1011.38 374.491 1011.18 374.52C1010.75 374.582 1010.38 374.682 1010.06 374.818C1009.74 374.955 1009.49 375.139 1009.32 375.372C1009.14 375.599 1009.05 375.884 1009.05 376.224C1009.05 376.719 1009.23 377.097 1009.59 377.358C1009.95 377.614 1010.41 377.741 1010.97 377.741ZM1032.34 380.239C1031.44 380.233 1030.58 380.082 1029.74 379.787C1028.91 379.491 1028.17 379.011 1027.51 378.347C1026.85 377.682 1026.33 376.801 1025.94 375.705C1025.56 374.608 1025.37 373.261 1025.37 371.665C1025.37 370.199 1025.54 368.889 1025.87 367.736C1026.21 366.577 1026.68 365.594 1027.3 364.787C1027.93 363.98 1028.68 363.366 1029.54 362.946C1030.41 362.52 1031.39 362.307 1032.47 362.307C1033.63 362.307 1034.66 362.534 1035.55 362.989C1036.45 363.437 1037.16 364.048 1037.7 364.821C1038.25 365.594 1038.58 366.46 1038.69 367.42H1035.05C1034.91 366.812 1034.61 366.335 1034.16 365.989C1033.7 365.642 1033.14 365.469 1032.47 365.469C1031.33 365.469 1030.47 365.963 1029.88 366.952C1029.29 367.94 1028.99 369.284 1028.98 370.983H1029.1C1029.36 370.466 1029.72 370.026 1030.16 369.662C1030.61 369.293 1031.12 369.011 1031.68 368.818C1032.26 368.619 1032.86 368.52 1033.5 368.52C1034.53 368.52 1035.45 368.764 1036.26 369.253C1037.07 369.736 1037.7 370.401 1038.17 371.247C1038.64 372.094 1038.87 373.062 1038.87 374.153C1038.87 375.335 1038.59 376.386 1038.04 377.307C1037.5 378.227 1036.73 378.949 1035.75 379.472C1034.77 379.989 1033.64 380.244 1032.34 380.239ZM1032.32 377.341C1032.89 377.341 1033.4 377.205 1033.85 376.932C1034.3 376.659 1034.65 376.29 1034.91 375.824C1035.16 375.358 1035.29 374.835 1035.29 374.256C1035.29 373.676 1035.16 373.156 1034.91 372.696C1034.66 372.236 1034.31 371.869 1033.87 371.597C1033.42 371.324 1032.92 371.188 1032.35 371.188C1031.92 371.188 1031.53 371.267 1031.16 371.426C1030.81 371.585 1030.49 371.807 1030.22 372.091C1029.95 372.375 1029.74 372.705 1029.59 373.08C1029.43 373.449 1029.36 373.844 1029.36 374.264C1029.36 374.827 1029.49 375.341 1029.74 375.807C1030 376.273 1030.35 376.645 1030.8 376.923C1031.25 377.202 1031.75 377.341 1032.32 377.341ZM1042.91 380.222C1042.35 380.222 1041.87 380.023 1041.47 379.625C1041.07 379.222 1040.87 378.739 1040.87 378.176C1040.87 377.619 1041.07 377.142 1041.47 376.744C1041.87 376.347 1042.35 376.148 1042.91 376.148C1043.46 376.148 1043.94 376.347 1044.35 376.744C1044.76 377.142 1044.96 377.619 1044.96 378.176C1044.96 378.551 1044.86 378.895 1044.67 379.207C1044.48 379.514 1044.24 379.761 1043.93 379.949C1043.62 380.131 1043.28 380.222 1042.91 380.222ZM1050.98 366.909L1053.38 371.486L1055.84 366.909H1059.57L1055.77 373.455L1059.67 380H1055.96L1053.38 375.474L1050.84 380H1047.09L1050.98 373.455L1047.23 366.909H1050.98Z" fill="white"/>
</g>
<defs>
<filter id="filter0_d_8_930" x="152" y="78" width="332" height="280" filterUnits="userSpaceOnUse" color-interpolation-filters="sRGB">
<feFlood flood-opacity="0" result="BackgroundImageFix"/>
<feColorMatrix in="SourceAlpha" type="matrix" values="0 0 0 0 0 0 0 0 0 0 0 0 0 0 0 0 0 0 127 0" result="hardAlpha"/>
<feOffset/>
<feGaussianBlur stdDeviation="25"/>
<feComposite in2="hardAlpha" operator="out"/>
<feColorMatrix type="matrix" values="0 0 0 0 0 0 0 0 0 0 0 0 0 0 0 0 0 0 0.35 0"/>
<feBlend mode="normal" in2="BackgroundImageFix" result="effect1_dropShadow_8_930"/>
<feBlend mode="normal" in="SourceGraphic" in2="effect1_dropShadow_8_930" result="shape"/>
</filter>
<filter id="filter1_d_8_930" x="478.091" y="160.909" width="598.818" height="114.455" filterUnits="userSpaceOnUse" color-interpolation-filters="sRGB">
<feFlood flood-opacity="0" result="BackgroundImageFix"/>
<feColorMatrix in="SourceAlpha" type="matrix" values="0 0 0 0 0 0 0 0 0 0 0 0 0 0 0 0 0 0 127 0" result="hardAlpha"/>
<feOffset/>
<feGaussianBlur stdDeviation="5"/>
<feComposite in2="hardAlpha" operator="out"/>
<feColorMatrix type="matrix" values="0 0 0 0 0 0 0 0 0 0 0 0 0 0 0 0 0 0 0.25 0"/>
<feBlend mode="normal" in2="BackgroundImageFix" result="effect1_dropShadow_8_930"/>
<feBlend mode="normal" in="SourceGraphic" in2="effect1_dropShadow_8_930" result="shape"/>
</filter>
<linearGradient id="paint0_linear_8_930" x1="1280" y1="-3.00407e-05" x2="139.688" y2="724.008" gradientUnits="userSpaceOnUse">
<stop stop-color="#0A0A0A"/>
<stop offset="1"/>
</linearGradient>
<linearGradient id="paint1_linear_8_930" x1="318" y1="128" x2="318" y2="308" gradientUnits="userSpaceOnUse">
<stop stop-color="#030061" stop-opacity="0.7"/>
<stop offset="1" stop-color="#9F1818"/>
</linearGradient>
<clipPath id="clip0_8_930">
<rect width="1280" height="504" fill="white"/>
</clipPath>
</defs>
</svg>
